<svg viewBox="255 259.5217 380 117.9565" width="5000" height="1552.0592105263158" xmlns="http://www.w3.org/2000/svg" xmlns:xlink="http://www.w3.org/1999/xlink" preserveAspectRatio="none"><defs></defs><style>.a6izo4zJpcolor {fill:#CCBF90;fill-opacity:1;}.companyName {fill:#CCBF90;fill-opacity:1;}.icon3-str {stroke:#EB63DD;stroke-opacity:1;}.shapeStroke-str {stroke:#CCBF90;stroke-opacity:1;}</style><g opacity="1" transform="rotate(0 255 355.5951)">
<svg width="325.5009" height="21.8831" x="255" y="355.5951" version="1.1" preserveAspectRatio="none" viewBox="4.2 -30.28 569.3999999999999 38.28">
  <g transform="matrix(1 0 0 1 0 0)" class="a6izo4zJpcolor"><path id="id-6izo4zJp26" d="M4.20 0L4.20-28L8.20-28L8.20 0L4.20 0Z M28.56-21.40Q32.60-21.40 34.98-19.06Q37.36-16.72 37.36-12.20L37.36-12.20L37.36 0L33.52 0L33.52-11.76Q33.52-14.84 32.04-16.40Q30.56-17.96 27.80-17.96L27.80-17.96Q24.68-17.96 22.88-16.14Q21.08-14.32 21.08-10.92L21.08-10.92L21.08 0L17.24 0L17.24-21.20L20.92-21.20L20.92-18Q22.08-19.64 24.06-20.52Q26.04-21.40 28.56-21.40L28.56-21.40Z M60.28-21.20L64.04-21.20L54.76 0L50.84 0L41.56-21.20L45.56-21.20L52.84-4.20L60.28-21.20Z M87.40-10.48Q87.40-10.04 87.32-9.32L87.32-9.32L70.12-9.32Q70.48-6.52 72.58-4.82Q74.68-3.12 77.80-3.12L77.80-3.12Q81.60-3.12 83.92-5.68L83.92-5.68L86.04-3.20Q84.60-1.52 82.46-0.64Q80.32 0.24 77.68 0.24L77.68 0.24Q74.32 0.24 71.72-1.14Q69.12-2.52 67.70-5Q66.28-7.48 66.28-10.60L66.28-10.60Q66.28-13.68 67.66-16.16Q69.04-18.64 71.46-20.02Q73.88-21.40 76.92-21.40L76.92-21.40Q79.96-21.40 82.34-20.02Q84.72-18.64 86.06-16.16Q87.40-13.68 87.40-10.48L87.40-10.48ZM76.92-18.16Q74.16-18.16 72.30-16.48Q70.44-14.80 70.12-12.08L70.12-12.08L83.72-12.08Q83.40-14.76 81.54-16.46Q79.68-18.16 76.92-18.16L76.92-18.16Z M100 0.24Q97.40 0.24 95-0.46Q92.60-1.16 91.24-2.24L91.24-2.24L92.84-5.28Q94.24-4.28 96.24-3.68Q98.24-3.08 100.28-3.08L100.28-3.08Q105.32-3.08 105.32-5.96L105.32-5.96Q105.32-6.92 104.64-7.48Q103.96-8.04 102.94-8.30Q101.92-8.56 100.04-8.88L100.04-8.88Q97.48-9.28 95.86-9.80Q94.24-10.32 93.08-11.56Q91.92-12.80 91.92-15.04L91.92-15.04Q91.92-17.92 94.32-19.66Q96.72-21.40 100.76-21.40L100.76-21.40Q102.88-21.40 105-20.88Q107.12-20.36 108.48-19.48L108.48-19.48L106.84-16.44Q104.24-18.12 100.72-18.12L100.72-18.12Q98.28-18.12 97-17.32Q95.72-16.52 95.72-15.20L95.72-15.20Q95.72-14.16 96.44-13.56Q97.16-12.96 98.22-12.68Q99.28-12.40 101.20-12.04L101.20-12.04Q103.76-11.60 105.34-11.10Q106.92-10.60 108.04-9.40Q109.16-8.20 109.16-6.04L109.16-6.04Q109.16-3.16 106.70-1.46Q104.24 0.24 100 0.24L100 0.24Z M125.88-4L127.08-1.24Q126.24-0.52 125-0.14Q123.76 0.24 122.44 0.24L122.44 0.24Q119.24 0.24 117.48-1.48Q115.72-3.20 115.72-6.40L115.72-6.40L115.72-18.04L112.12-18.04L112.12-21.20L115.72-21.20L115.72-25.84L119.56-25.84L119.56-21.20L125.64-21.20L125.64-18.04L119.56-18.04L119.56-6.56Q119.56-4.84 120.42-3.92Q121.28-3 122.88-3L122.88-3Q124.64-3 125.88-4L125.88-4Z M159.44-21.40Q163.44-21.40 165.78-19.08Q168.12-16.76 168.12-12.20L168.12-12.20L168.12 0L164.28 0L164.28-11.76Q164.28-14.84 162.86-16.40Q161.44-17.96 158.80-17.96L158.80-17.96Q155.88-17.96 154.16-16.14Q152.44-14.32 152.44-10.92L152.44-10.92L152.44 0L148.60 0L148.60-11.76Q148.60-14.84 147.18-16.40Q145.76-17.96 143.12-17.96L143.12-17.96Q140.20-17.96 138.48-16.14Q136.76-14.32 136.76-10.92L136.76-10.92L136.76 0L132.92 0L132.92-21.20L136.60-21.20L136.60-18.04Q137.76-19.68 139.64-20.54Q141.52-21.40 143.92-21.40L143.92-21.40Q146.40-21.40 148.32-20.40Q150.24-19.40 151.28-17.48L151.28-17.48Q152.48-19.32 154.62-20.36Q156.76-21.40 159.44-21.40L159.44-21.40Z M195.68-10.48Q195.68-10.04 195.60-9.32L195.60-9.32L178.40-9.32Q178.76-6.52 180.86-4.82Q182.96-3.12 186.08-3.12L186.08-3.12Q189.88-3.12 192.20-5.68L192.20-5.68L194.32-3.20Q192.88-1.52 190.74-0.64Q188.60 0.24 185.96 0.24L185.96 0.24Q182.60 0.24 180.00-1.14Q177.40-2.52 175.98-5Q174.56-7.48 174.56-10.60L174.56-10.60Q174.56-13.68 175.94-16.16Q177.32-18.64 179.74-20.02Q182.16-21.40 185.20-21.40L185.20-21.40Q188.24-21.40 190.62-20.02Q193.00-18.64 194.34-16.16Q195.68-13.68 195.68-10.48L195.68-10.48ZM185.20-18.16Q182.44-18.16 180.58-16.48Q178.72-14.80 178.40-12.08L178.40-12.08L192.00-12.08Q191.68-14.76 189.82-16.46Q187.96-18.16 185.20-18.16L185.20-18.16Z M213.52-21.40Q217.56-21.40 219.94-19.06Q222.32-16.72 222.32-12.20L222.32-12.20L222.32 0L218.48 0L218.48-11.76Q218.48-14.84 217.00-16.40Q215.52-17.96 212.76-17.96L212.76-17.96Q209.64-17.96 207.84-16.14Q206.04-14.32 206.04-10.92L206.04-10.92L206.04 0L202.20 0L202.20-21.20L205.88-21.20L205.88-18Q207.04-19.64 209.02-20.52Q211.00-21.40 213.52-21.40L213.52-21.40Z M241.36-4L242.56-1.24Q241.72-0.52 240.48-0.14Q239.24 0.24 237.92 0.24L237.92 0.24Q234.72 0.24 232.96-1.48Q231.20-3.20 231.20-6.40L231.20-6.40L231.20-18.04L227.60-18.04L227.60-21.20L231.20-21.20L231.20-25.84L235.04-25.84L235.04-21.20L241.12-21.20L241.12-18.04L235.04-18.04L235.04-6.56Q235.04-4.84 235.90-3.92Q236.76-3 238.36-3L238.36-3Q240.12-3 241.36-4L241.36-4Z M271.68-21.40Q275.72-21.40 278.10-19.06Q280.48-16.72 280.48-12.20L280.48-12.20L280.48 0L276.64 0L276.64-11.76Q276.64-14.84 275.16-16.40Q273.68-17.96 270.92-17.96L270.92-17.96Q267.80-17.96 266.00-16.14Q264.20-14.32 264.20-10.92L264.20-10.92L264.20 0L260.36 0L260.36-29.68L264.20-29.68L264.20-18.20Q265.40-19.72 267.34-20.56Q269.28-21.40 271.68-21.40L271.68-21.40Z M308.08-10.48Q308.08-10.04 308.00-9.32L308.00-9.32L290.80-9.32Q291.16-6.52 293.26-4.82Q295.36-3.12 298.48-3.12L298.48-3.12Q302.28-3.12 304.60-5.68L304.60-5.68L306.72-3.20Q305.28-1.52 303.14-0.64Q301.00 0.24 298.36 0.24L298.36 0.24Q295.00 0.24 292.40-1.14Q289.80-2.52 288.38-5Q286.96-7.48 286.96-10.60L286.96-10.60Q286.96-13.68 288.34-16.16Q289.72-18.64 292.14-20.02Q294.56-21.40 297.60-21.40L297.60-21.40Q300.64-21.40 303.02-20.02Q305.40-18.64 306.74-16.16Q308.08-13.68 308.08-10.48L308.08-10.48ZM297.60-18.16Q294.84-18.16 292.98-16.48Q291.12-14.80 290.80-12.08L290.80-12.08L304.40-12.08Q304.08-14.76 302.22-16.46Q300.36-18.16 297.60-18.16L297.60-18.16Z M314.60 0L314.60-29.68L318.44-29.68L318.44 0L314.60 0Z M338.20-21.40Q341.28-21.40 343.72-20.04Q346.16-18.68 347.54-16.24Q348.92-13.80 348.92-10.60L348.92-10.60Q348.92-7.40 347.54-4.94Q346.16-2.48 343.72-1.12Q341.28 0.24 338.20 0.24L338.20 0.24Q335.92 0.24 334.02-0.64Q332.12-1.52 330.80-3.20L330.80-3.20L330.80 7.76L326.96 7.76L326.96-21.20L330.64-21.20L330.64-17.84Q331.92-19.60 333.88-20.50Q335.84-21.40 338.20-21.40L338.20-21.40ZM337.88-3.12Q339.92-3.12 341.54-4.06Q343.16-5 344.10-6.70Q345.04-8.40 345.04-10.60L345.04-10.60Q345.04-12.80 344.10-14.50Q343.16-16.20 341.54-17.12Q339.92-18.04 337.88-18.04L337.88-18.04Q335.88-18.04 334.26-17.10Q332.64-16.16 331.70-14.48Q330.76-12.80 330.76-10.60L330.76-10.60Q330.76-8.40 331.68-6.70Q332.60-5 334.24-4.06Q335.88-3.12 337.88-3.12L337.88-3.12Z M373.48 0.24Q370.88 0.24 368.48-0.46Q366.08-1.16 364.72-2.24L364.72-2.24L366.32-5.28Q367.72-4.28 369.72-3.68Q371.72-3.08 373.76-3.08L373.76-3.08Q378.80-3.08 378.80-5.96L378.80-5.96Q378.80-6.92 378.12-7.48Q377.44-8.04 376.42-8.30Q375.40-8.56 373.52-8.88L373.52-8.88Q370.96-9.28 369.34-9.80Q367.72-10.32 366.56-11.56Q365.40-12.80 365.40-15.04L365.40-15.04Q365.40-17.92 367.80-19.66Q370.20-21.40 374.24-21.40L374.24-21.40Q376.36-21.40 378.48-20.88Q380.60-20.36 381.96-19.48L381.96-19.48L380.32-16.44Q377.72-18.12 374.20-18.12L374.20-18.12Q371.76-18.12 370.48-17.32Q369.20-16.52 369.20-15.20L369.20-15.20Q369.20-14.16 369.92-13.56Q370.64-12.96 371.70-12.68Q372.76-12.40 374.68-12.04L374.68-12.04Q377.24-11.60 378.82-11.10Q380.40-10.60 381.52-9.40Q382.64-8.20 382.64-6.04L382.64-6.04Q382.64-3.16 380.18-1.46Q377.72 0.24 373.48 0.24L373.48 0.24Z M399.36-4L400.56-1.24Q399.72-0.52 398.48-0.14Q397.24 0.24 395.92 0.24L395.92 0.24Q392.72 0.24 390.96-1.48Q389.20-3.20 389.20-6.40L389.20-6.40L389.20-18.04L385.60-18.04L385.60-21.20L389.20-21.20L389.20-25.84L393.04-25.84L393.04-21.20L399.12-21.20L399.12-18.04L393.04-18.04L393.04-6.56Q393.04-4.84 393.90-3.92Q394.76-3 396.36-3L396.36-3Q398.12-3 399.36-4L399.36-4Z M410.08-17.64Q411.08-19.48 413.04-20.44Q415.00-21.40 417.80-21.40L417.80-21.40L417.80-17.68Q417.48-17.72 416.92-17.72L416.92-17.72Q413.80-17.72 412.02-15.86Q410.24-14 410.24-10.56L410.24-10.56L410.24 0L406.40 0L406.40-21.20L410.08-21.20L410.08-17.64Z M431.40-21.40Q435.80-21.40 438.14-19.24Q440.48-17.08 440.48-12.80L440.48-12.80L440.48 0L436.84 0L436.84-2.80Q435.88-1.32 434.10-0.54Q432.32 0.24 429.88 0.24L429.88 0.24Q426.32 0.24 424.18-1.48Q422.04-3.20 422.04-6L422.04-6Q422.04-8.80 424.08-10.50Q426.12-12.20 430.56-12.20L430.56-12.20L436.64-12.20L436.64-12.96Q436.64-15.44 435.20-16.76Q433.76-18.08 430.96-18.08L430.96-18.08Q429.08-18.08 427.28-17.46Q425.48-16.84 424.24-15.80L424.24-15.80L422.64-18.68Q424.28-20 426.56-20.70Q428.84-21.40 431.40-21.40L431.40-21.40ZM430.52-2.72Q432.72-2.72 434.32-3.70Q435.92-4.68 436.64-6.48L436.64-6.48L436.64-9.44L430.72-9.44Q425.84-9.44 425.84-6.16L425.84-6.16Q425.84-4.56 427.08-3.64Q428.32-2.72 430.52-2.72L430.52-2.72Z M459.52-4L460.72-1.24Q459.88-0.52 458.64-0.14Q457.40 0.24 456.08 0.24L456.08 0.24Q452.88 0.24 451.12-1.48Q449.36-3.20 449.36-6.40L449.36-6.40L449.36-18.04L445.76-18.04L445.76-21.20L449.36-21.20L449.36-25.84L453.20-25.84L453.20-21.20L459.28-21.20L459.28-18.04L453.20-18.04L453.20-6.56Q453.20-4.84 454.06-3.92Q454.92-3 456.52-3L456.52-3Q458.28-3 459.52-4L459.52-4Z M485.00-10.48Q485.00-10.04 484.92-9.32L484.92-9.32L467.72-9.32Q468.08-6.52 470.18-4.82Q472.28-3.12 475.40-3.12L475.40-3.12Q479.20-3.12 481.52-5.68L481.52-5.68L483.64-3.20Q482.20-1.52 480.06-0.64Q477.92 0.24 475.28 0.24L475.28 0.24Q471.92 0.24 469.32-1.14Q466.72-2.52 465.30-5Q463.88-7.48 463.88-10.60L463.88-10.60Q463.88-13.68 465.26-16.16Q466.64-18.64 469.06-20.02Q471.48-21.40 474.52-21.40L474.52-21.40Q477.56-21.40 479.94-20.02Q482.32-18.64 483.66-16.16Q485.00-13.68 485.00-10.48L485.00-10.48ZM474.52-18.16Q471.76-18.16 469.90-16.48Q468.04-14.80 467.72-12.08L467.72-12.08L481.32-12.08Q481.00-14.76 479.14-16.46Q477.28-18.16 474.52-18.16L474.52-18.16Z M508.16-21.20L511.80-21.20L511.80-2.88Q511.80 2.68 509.04 5.34Q506.28 8 500.80 8L500.80 8Q497.80 8 495.08 7.18Q492.36 6.36 490.68 4.84L490.68 4.84L492.52 1.88Q494.00 3.16 496.18 3.90Q498.36 4.64 500.68 4.64L500.68 4.64Q504.40 4.64 506.18 2.88Q507.96 1.12 507.96-2.48L507.96-2.48L507.96-4.16Q506.60-2.52 504.62-1.70Q502.64-0.88 500.32-0.88L500.32-0.88Q497.28-0.88 494.82-2.18Q492.36-3.48 490.96-5.82Q489.56-8.16 489.56-11.16L489.56-11.16Q489.56-14.16 490.96-16.50Q492.36-18.84 494.82-20.12Q497.28-21.40 500.32-21.40L500.32-21.40Q502.72-21.40 504.78-20.52Q506.84-19.64 508.16-17.92L508.16-17.92L508.16-21.20ZM500.76-4.24Q502.84-4.24 504.50-5.12Q506.16-6 507.10-7.58Q508.04-9.16 508.04-11.16L508.04-11.16Q508.04-14.24 506.00-16.14Q503.96-18.04 500.76-18.04L500.76-18.04Q497.52-18.04 495.48-16.14Q493.44-14.24 493.44-11.16L493.44-11.16Q493.44-9.16 494.38-7.58Q495.32-6 496.98-5.12Q498.64-4.24 500.76-4.24L500.76-4.24Z M520.32 0L520.32-21.20L524.16-21.20L524.16 0L520.32 0ZM522.24-25.28Q521.12-25.28 520.38-26Q519.64-26.72 519.64-27.76L519.64-27.76Q519.64-28.80 520.38-29.54Q521.12-30.28 522.24-30.28L522.24-30.28Q523.36-30.28 524.10-29.58Q524.84-28.88 524.84-27.84L524.84-27.84Q524.84-26.76 524.10-26.02Q523.36-25.28 522.24-25.28L522.24-25.28Z M551.84-10.48Q551.84-10.04 551.76-9.32L551.76-9.32L534.56-9.32Q534.92-6.52 537.02-4.82Q539.12-3.12 542.24-3.12L542.24-3.12Q546.04-3.12 548.36-5.68L548.36-5.68L550.48-3.20Q549.04-1.52 546.90-0.64Q544.76 0.24 542.12 0.24L542.12 0.24Q538.76 0.24 536.16-1.14Q533.56-2.52 532.14-5Q530.72-7.48 530.72-10.60L530.72-10.60Q530.72-13.68 532.10-16.16Q533.48-18.64 535.90-20.02Q538.32-21.40 541.36-21.40L541.36-21.40Q544.40-21.40 546.78-20.02Q549.16-18.64 550.50-16.16Q551.84-13.68 551.84-10.48L551.84-10.48ZM541.36-18.16Q538.60-18.16 536.74-16.48Q534.88-14.80 534.56-12.08L534.56-12.08L548.16-12.08Q547.84-14.76 545.98-16.46Q544.12-18.16 541.36-18.16L541.36-18.16Z M564.44 0.24Q561.84 0.24 559.44-0.46Q557.04-1.16 555.68-2.24L555.68-2.24L557.28-5.28Q558.68-4.28 560.68-3.68Q562.68-3.08 564.72-3.08L564.72-3.08Q569.76-3.08 569.76-5.96L569.76-5.96Q569.76-6.92 569.08-7.48Q568.40-8.04 567.38-8.30Q566.36-8.56 564.48-8.88L564.48-8.88Q561.92-9.28 560.30-9.80Q558.68-10.32 557.52-11.56Q556.36-12.80 556.36-15.04L556.36-15.04Q556.36-17.92 558.76-19.66Q561.16-21.40 565.20-21.40L565.20-21.40Q567.32-21.40 569.44-20.88Q571.56-20.36 572.92-19.48L572.92-19.48L571.28-16.44Q568.68-18.12 565.16-18.12L565.16-18.12Q562.72-18.12 561.44-17.32Q560.16-16.52 560.16-15.20L560.16-15.20Q560.16-14.16 560.88-13.56Q561.60-12.96 562.66-12.68Q563.72-12.40 565.64-12.04L565.64-12.04Q568.20-11.60 569.78-11.10Q571.36-10.60 572.48-9.40Q573.60-8.20 573.60-6.04L573.60-6.04Q573.60-3.16 571.14-1.46Q568.68 0.24 564.44 0.24L564.44 0.24Z"/></g>
</svg>
</g><g opacity="1" transform="rotate(0 270.6308 276.5217)">
<svg width="364.3692" height="64.362" x="270.6308" y="276.5217" version="1.1" preserveAspectRatio="none" viewBox="1.36 -28.84 166.44 29.4">
  <g transform="matrix(1 0 0 1 0 0)" class="companyName"><path id="id-D6z1nYkh7" d="M13.72-28.32L13.72-27.52Q12.36-27.44 11.76-27.20Q11.16-26.96 10.94-26.28Q10.72-25.60 10.72-24.08L10.72-24.08L10.72-4.24Q10.72-2.72 10.94-2.04Q11.16-1.36 11.76-1.12Q12.36-0.88 13.72-0.80L13.72-0.80L13.72 0Q11.56-0.12 7.68-0.12L7.68-0.12Q3.40-0.12 1.36 0L1.36 0L1.36-0.80Q2.68-0.88 3.30-1.12Q3.92-1.36 4.14-2.04Q4.36-2.72 4.36-4.24L4.36-4.24L4.36-24.08Q4.36-25.60 4.14-26.28Q3.92-26.96 3.30-27.20Q2.68-27.44 1.36-27.52L1.36-27.52L1.36-28.32Q3.40-28.20 7.68-28.20L7.68-28.20Q11.56-28.20 13.72-28.32L13.72-28.32Z M42.76-28.32L42.76-27.52Q41.44-27.32 40.82-26.84Q40.20-26.36 39.98-25.32Q39.76-24.28 39.76-22.24L39.76-22.24L39.76 0.08L38.80 0.04L37.72 0.08L20.36-21.92L20.36-6.56Q20.36-4.20 20.60-3.10Q20.84-2 21.64-1.50Q22.44-1 24.24-0.80L24.24-0.80L24.24 0Q22.68-0.12 19.92-0.12L19.92-0.12Q17.72-0.12 16.44 0L16.44 0L16.44-0.80Q17.76-1 18.38-1.48Q19-1.96 19.22-3Q19.44-4.04 19.44-6.08L19.44-6.08L19.44-24.08Q19.44-25.60 19.22-26.28Q19-26.96 18.38-27.20Q17.76-27.44 16.44-27.52L16.44-27.52L16.44-28.32Q17.72-28.20 19.92-28.20L19.92-28.20Q21.92-28.20 23.36-28.32L23.36-28.32L38.84-9.24L38.84-21.76Q38.84-24.12 38.60-25.22Q38.36-26.32 37.56-26.82Q36.76-27.32 34.96-27.52L34.96-27.52L34.96-28.32Q36.52-28.20 39.28-28.20L39.28-28.20Q41.52-28.20 42.76-28.32L42.76-28.32Z M68-28.20Q69.84-28.20 71.04-28.32L71.04-28.32L71.04-27.52Q70.04-27.16 69.08-26Q68.12-24.84 67.36-22.76L67.36-22.76L58.92 0.08Q58.48 0.04 57.52 0.04L57.52 0.04Q56.60 0.04 56.16 0.08L56.16 0.08L45.96-24.96Q45.44-26.28 44.76-26.88Q44.08-27.48 43.44-27.52L43.44-27.52L43.44-28.32Q45.84-28.20 49.52-28.20L49.52-28.20Q53.64-28.20 55.60-28.32L55.60-28.32L55.60-27.52Q54.08-27.44 53.44-27.16Q52.80-26.88 52.80-26.04L52.80-26.04Q52.80-25.36 53.28-24.16L53.28-24.16L60.32-6.24L65.24-19.52Q66.36-22.60 66.36-24.40L66.36-24.40Q66.36-26 65.50-26.72Q64.64-27.44 63-27.52L63-27.52L63-28.32Q65.72-28.20 68-28.20L68-28.20Z M93.92-6.08Q93.92-2.40 94.20 0L94.20 0Q91.48-0.12 85.04-0.12L85.04-0.12Q76.32-0.12 72 0L72 0L72-0.80Q73.32-0.88 73.94-1.12Q74.56-1.36 74.78-2.04Q75-2.72 75-4.24L75-4.24L75-24.08Q75-25.60 74.78-26.28Q74.56-26.96 73.94-27.20Q73.32-27.44 72-27.52L72-27.52L72-28.32Q76.32-28.20 85.04-28.20L85.04-28.20Q90.92-28.20 93.40-28.32L93.40-28.32Q93.12-25 93.12-22.40L93.12-22.40Q93.12-20.64 93.24-19.68L93.24-19.68L92.32-19.68Q91.72-23.96 90.16-25.68Q88.60-27.40 85.76-27.40L85.76-27.40L84.12-27.40Q82.88-27.40 82.32-27.20Q81.76-27 81.56-26.42Q81.36-25.84 81.36-24.56L81.36-24.56L81.36-14.64L82.64-14.64Q84.76-14.64 85.86-16.20Q86.96-17.76 87.40-19.92L87.40-19.92L88.32-19.92Q88.20-18.24 88.20-16.16L88.20-16.16L88.20-14.24Q88.20-12.20 88.44-8.56L88.44-8.56L87.52-8.56Q86.68-13.84 82.64-13.84L82.64-13.84L81.36-13.84L81.36-3.76Q81.36-2.48 81.56-1.90Q81.76-1.32 82.32-1.12Q82.88-0.92 84.12-0.92L84.12-0.92L86.08-0.92Q88.92-0.92 90.66-2.86Q92.40-4.80 93.12-9.44L93.12-9.44L94.04-9.44Q93.92-8.12 93.92-6.08L93.92-6.08Z M109.96-28.32L109.96-27.52Q108.52-27.44 107.86-27.20Q107.20-26.96 106.96-26.28Q106.72-25.60 106.72-24.08L106.72-24.08L106.72-3.76Q106.72-2.48 106.92-1.90Q107.12-1.32 107.62-1.12Q108.12-0.92 109.24-0.92L109.24-0.92L111.20-0.92Q113.92-0.92 115.90-3.36Q117.88-5.80 118.48-9.84L118.48-9.84L119.40-9.84Q119.28-8.48 119.28-6.32L119.28-6.32Q119.28-2.48 119.56 0L119.56 0Q116.84-0.12 110.40-0.12L110.40-0.12Q101.68-0.12 97.36 0L97.36 0L97.36-0.80Q98.68-0.88 99.30-1.12Q99.92-1.36 100.14-2.04Q100.36-2.72 100.36-4.24L100.36-4.24L100.36-24.08Q100.36-25.60 100.14-26.28Q99.92-26.96 99.30-27.20Q98.68-27.44 97.36-27.52L97.36-27.52L97.36-28.32Q99.40-28.20 103.68-28.20L103.68-28.20Q107.76-28.20 109.96-28.32L109.96-28.32Z M133.28-11.44L131.16-11.44L131.16-4.48Q131.16-2.88 131.50-2.14Q131.84-1.40 132.70-1.16Q133.56-0.92 135.44-0.88L135.44-0.88L135.44 0Q130.52-0.12 128.12-0.12L128.12-0.12Q126.12-0.12 123.08-0.04L123.08-0.04L121.80 0L121.80-0.80Q123.12-0.88 123.74-1.12Q124.36-1.36 124.58-2.04Q124.80-2.72 124.80-4.24L124.80-4.24L124.80-24.08Q124.80-25.60 124.58-26.28Q124.36-26.96 123.74-27.20Q123.12-27.44 121.80-27.52L121.80-27.52L121.80-28.32Q123.84-28.20 127.88-28.20L127.88-28.20L132.32-28.24Q133.12-28.28 134.16-28.28L134.16-28.28Q139.56-28.28 142.40-26.14Q145.24-24 145.24-20.40L145.24-20.40Q145.24-18.20 144.12-16.18Q143-14.16 140.34-12.80Q137.68-11.44 133.28-11.44L133.28-11.44ZM133.64-27.52Q132.56-27.52 132.06-27.24Q131.56-26.96 131.36-26.24Q131.16-25.52 131.16-24.08L131.16-24.08L131.16-12.24L132.88-12.24Q136.12-12.24 137.36-14.32Q138.60-16.40 138.60-19.96L138.60-19.96Q138.60-23.84 137.46-25.68Q136.32-27.52 133.64-27.52L133.64-27.52Z M157.44-28.84Q159.52-28.84 160.76-28.44Q162.00-28.04 163.28-27.28L163.28-27.28Q163.72-27.04 164.06-26.88Q164.40-26.72 164.64-26.72L164.64-26.72Q165-26.72 165.20-27.14Q165.40-27.56 165.52-28.48L165.52-28.48L166.44-28.48Q166.24-25.80 166.24-19.36L166.24-19.36L165.32-19.36Q165.16-21.52 164.34-23.48Q163.52-25.44 162.02-26.66Q160.52-27.88 158.52-27.88L158.52-27.88Q156.56-27.88 155.34-26.78Q154.12-25.68 154.12-23.80L154.12-23.80Q154.12-22.40 154.72-21.36Q155.32-20.32 156.40-19.46Q157.48-18.60 159.72-17.12L159.72-17.12L161.00-16.24Q163.36-14.68 164.72-13.52Q166.08-12.36 166.94-10.82Q167.80-9.28 167.80-7.24L167.80-7.24Q167.80-4.68 166.48-2.94Q165.16-1.20 162.90-0.32Q160.64 0.56 157.88 0.56L157.88 0.56Q155.64 0.56 154.16 0.16Q152.68-0.24 151.44-0.92L151.44-0.92Q150.56-1.48 150.08-1.48L150.08-1.48Q149.72-1.48 149.52-1.06Q149.32-0.64 149.20 0.28L149.20 0.28L148.28 0.28Q148.44-2.24 148.44-10.52L148.44-10.52L149.36-10.52Q149.64-6.04 151.36-3.26Q153.08-0.48 156.64-0.48L156.64-0.48Q158.80-0.48 160.20-1.64Q161.60-2.80 161.60-4.96L161.60-4.96Q161.60-7.20 160.16-8.80Q158.72-10.40 155.60-12.40L155.60-12.40Q153.20-13.96 151.76-15.12Q150.32-16.28 149.40-17.86Q148.48-19.44 148.48-21.52L148.48-21.52Q148.48-23.92 149.70-25.58Q150.92-27.24 152.96-28.04Q155.00-28.84 157.44-28.84L157.44-28.84Z"/></g>
</svg>
</g><g opacity="1" transform="rotate(0 255 259.5217)">
<svg width="2.7584" height="64.362" x="255" y="259.5217" version="1.1" preserveAspectRatio="none" viewBox="0 0 2.7584 64.362">
  <rect x="0" y="0" width="2.7584" height="64.362" class="companyName shapeStroke-str" style="stroke-width:0;" rx="0px" ry="0px" />
</svg>
</g></svg>